HIERARCHY
ROOT Hips
{
	OFFSET 0.000000 0.000000 0.000000
	CHANNELS 6 Xposition Yposition Zposition Xrotation Yrotation Zrotation
	JOINT LeftUpLeg_virtual
	{
		OFFSET 0.000000 0.000000 0.000000
		CHANNELS 3 Xrotation Yrotation Zrotation
		JOINT LeftUpLeg
		{
			OFFSET 10.205400 -3.823500 0.155100
			CHANNELS 3 Xrotation Yrotation Zrotation
			JOINT LeftLeg
			{
				OFFSET 0.708757 -12.982077 0.567790
				CHANNELS 3 Xrotation Yrotation Zrotation
				JOINT LeftFoot
				{
					OFFSET -0.708756 -10.717838 -2.184338
					CHANNELS 3 Xrotation Yrotation Zrotation
					JOINT LeftToeBase
					{
						OFFSET 0.108149 -7.191104 7.560241
						CHANNELS 3 Xrotation Yrotation Zrotation
						JOINT LeftToe_End
						{
							OFFSET 0.070230 0.081724 4.490308
							CHANNELS 3 Xrotation Yrotation Zrotation
							End Site
							{
								OFFSET 0 0 0
							}
						}
					}
				}
			}
		}
	}
	JOINT RightUpLeg_virtual
	{
		OFFSET 0.000000 0.000000 0.000000
		CHANNELS 3 Xrotation Yrotation Zrotation
		JOINT RightUpLeg
		{
			OFFSET -10.205400 -3.823500 0.005500
			CHANNELS 3 Xrotation Yrotation Zrotation
			JOINT RightLeg
			{
				OFFSET -0.708756 -12.982134 0.610632
				CHANNELS 3 Xrotation Yrotation Zrotation
				JOINT RightFoot
				{
					OFFSET 0.708754 -10.717769 -1.945823
					CHANNELS 3 Xrotation Yrotation Zrotation
					JOINT RightToeBase
					{
						OFFSET -0.108140 -7.191069 7.372968
						CHANNELS 3 Xrotation Yrotation Zrotation
						JOINT RightToe_End
						{
							OFFSET -0.070227 0.081735 4.479403
							CHANNELS 3 Xrotation Yrotation Zrotation
							End Site
							{
								OFFSET 0 0 0
							}
						}
					}
				}
			}
		}
	}
	JOINT Spine_virtual
	{
		OFFSET 0.000000 0.000000 0.000000
		CHANNELS 3 Xrotation Yrotation Zrotation
		JOINT Spine
		{
			OFFSET 0.000000 6.876099 0.125700
			CHANNELS 3 Xrotation Yrotation Zrotation
			JOINT Spine1
			{
				OFFSET 0.000000 5.730043 0.104720
				CHANNELS 3 Xrotation Yrotation Zrotation
				JOINT Spine1_split
				{
					OFFSET 0.000000 5.730043 0.104720
					CHANNELS 3 Xrotation Yrotation Zrotation
					JOINT Spine2
					{
						OFFSET 0.000000 5.730043 0.104720
						CHANNELS 3 Xrotation Yrotation Zrotation
						JOINT Neck_virtual
						{
							OFFSET 0.000000 0.000000 0.000000
							CHANNELS 3 Xrotation Yrotation Zrotation
							JOINT Neck
							{
								OFFSET 0.000000 10.314075 0.188496
								CHANNELS 3 Xrotation Yrotation Zrotation
								JOINT Head
								{
									OFFSET 0.000000 7.643700 -2.377400
									CHANNELS 3 Xrotation Yrotation Zrotation
									JOINT HeadTop_End
									{
										OFFSET 0.000000 43.788605 -13.619600
										CHANNELS 3 Xrotation Yrotation Zrotation
										End Site
										{
											OFFSET 0 0 0
										}
									}
								}
							}
						}
						JOINT LeftShoulder_virtual
						{
							OFFSET 0.000000 0.000000 0.000000
							CHANNELS 3 Xrotation Yrotation Zrotation
							JOINT LeftShoulder
							{
								OFFSET 2.196100 4.412489 0.087492
								CHANNELS 3 Xrotation Yrotation Zrotation
								JOINT LeftShoulder_split
								{
									OFFSET 2.196100 4.412489 0.087492
									CHANNELS 3 Xrotation Yrotation Zrotation
									JOINT LeftArm
									{
										OFFSET 8.771219 -2.981674 -0.026999
										CHANNELS 3 Xrotation Yrotation Zrotation
										JOINT LeftForeArm
										{
											OFFSET 8.512804 0.000000 -0.000000
											CHANNELS 3 Xrotation Yrotation Zrotation
											JOINT LeftHand
											{
												OFFSET 18.484802 0.000000 -0.000000
												CHANNELS 3 Xrotation Yrotation Zrotation
												End Site
												{
													OFFSET 0 0 0
												}
											}
										}
									}
								}
							}
						}
						JOINT RightShoulder_virtual
						{
							OFFSET 0.000000 0.000000 0.000000
							CHANNELS 3 Xrotation Yrotation Zrotation
							JOINT RightShoulder
							{
								OFFSET -2.196100 4.412496 0.070690
								CHANNELS 3 Xrotation Yrotation Zrotation
								JOINT RightShoulder_split
								{
									OFFSET -2.196100 4.412496 0.070690
									CHANNELS 3 Xrotation Yrotation Zrotation
									JOINT RightArm
									{
										OFFSET -8.771282 -2.981682 -0.094208
										CHANNELS 3 Xrotation Yrotation Zrotation
										JOINT RightForeArm
										{
											OFFSET -8.494598 0.000000 0.000000
											CHANNELS 3 Xrotation Yrotation Zrotation
											JOINT RightHand
											{
												OFFSET -18.483803 0.000000 0.000001
												CHANNELS 3 Xrotation Yrotation Zrotation
												End Site
												{
													OFFSET 0 0 0
												}
											}
										}
									}
								}
							}
						}
					}
				}
			}
		}
	}
}
MOTION
Frames: 8
Frame Time: 0.03333333
-0.763316 33.078823 6.650679 0.000000 0.000000 0.000000 175.469636 -62.313236 176.824746 1.152669 16.845000 17.680354 24.085306 17.764825 0.868071 -16.612675 10.011261 -31.329043 -6.297930 2.114934 -1.081163 0.000000 0.000000 0.000000 174.570100 -61.659191 175.573400 -14.684087 -17.642814 -17.486215 14.051122 -12.021606 1.175841 1.233542 -2.415460 10.237196 -1.796405 -16.862789 6.732938 0.000000 0.000000 0.000000 174.675695 -65.398078 175.072037 9.787621 -0.927176 0.120733 -0.120287 -1.344414 2.175074 0.812969 -0.803922 -0.001996 0.000000 0.000000 0.000000 -2.347095 -1.239415 2.540545 -4.041554 21.894767 4.561095 2.456363 23.472285 -7.939976 0.000000 0.000000 0.000000 -2.112548 -0.785970 2.189383 0.982510 1.630959 -8.208434 1.857804 -3.006590 -1.767129 -0.761609 -7.534101 -58.519196 5.029610 -16.610868 -6.051997 0.000000 0.000000 0.000000 -1.747291 -1.144040 1.790278 1.808599 -2.000140 18.918478 -2.936312 -1.451494 -0.475967 16.959008 27.482301 45.143784 16.352074 26.554923 -5.998980 0.000000 0.000000 0.000000 
-0.762907 32.858650 5.678144 0.000000 0.000000 0.000000 176.098861 -58.874830 177.658985 3.762957 18.144946 19.329289 25.407042 19.989469 0.337086 -16.154115 11.094102 -33.227316 -6.946064 2.307577 -1.034772 0.000000 0.000000 0.000000 175.326421 -58.158863 176.537700 -16.310147 -18.149991 -15.906510 15.108136 -11.009280 1.209215 1.956900 -0.919622 9.750343 -2.828346 -16.846223 6.309783 0.000000 0.000000 0.000000 175.816815 -61.439888 176.505530 9.979712 -1.460593 -0.145234 -0.066365 -1.705676 2.721815 0.880554 -0.527495 -0.091954 0.000000 0.000000 0.000000 -2.368129 -1.602899 3.022593 -4.250029 19.253829 3.411213 1.770667 19.496372 -6.117291 0.000000 0.000000 0.000000 -2.013061 -1.125299 2.715105 1.013286 2.169601 -9.031943 1.538725 -3.001417 -1.626221 0.513678 -8.215913 -58.842223 4.317588 -16.635465 -5.978125 0.000000 0.000000 0.000000 -1.605717 -1.457422 2.287717 1.798688 -2.375905 18.277685 -2.883650 -1.281541 -0.448305 16.152778 28.444203 45.426301 16.074007 26.402187 -6.241471 0.000000 0.000000 0.000000 
-0.738850 32.566864 4.653908 0.000000 0.000000 0.000000 176.688675 -55.381728 178.328931 5.235817 18.795007 21.579049 28.750834 21.240679 -0.439267 -14.639214 11.089960 -34.607605 -6.410258 2.725035 -2.164684 0.000000 0.000000 0.000000 176.137615 -54.712342 177.393509 -17.292226 -18.809873 -13.623969 16.537155 -9.698608 1.027039 1.353024 0.256095 8.624382 -3.798583 -16.690733 5.652950 0.000000 0.000000 0.000000 176.858104 -57.466377 177.639164 10.345516 -2.046739 -0.367858 -0.068069 -2.048152 3.150343 0.907035 -0.166797 -0.263748 0.000000 0.000000 0.000000 -2.408276 -1.966397 3.379952 -4.320006 16.273168 2.544248 1.237661 15.335771 -4.461325 0.000000 0.000000 0.000000 -1.977384 -1.467198 3.127275 1.046085 2.579523 -9.638397 1.348376 -3.072723 -1.340933 2.036081 -8.841433 -59.305911 3.696911 -16.986211 -6.005685 0.000000 0.000000 0.000000 -1.545095 -1.773548 2.699467 1.815566 -2.624324 17.835046 -3.019097 -1.031894 -0.427514 15.445414 29.404583 45.658896 15.685903 26.274945 -6.204232 0.000000 0.000000 0.000000 
-0.699845 32.241417 3.574894 0.000000 0.000000 0.000000 177.243423 -51.942373 178.847438 5.219525 18.314944 24.329581 33.774237 21.157365 -1.139204 -11.639629 9.746824 -35.676718 -4.734984 3.326538 -4.721893 0.000000 0.000000 0.000000 177.031250 -51.379227 178.189131 -17.517342 -19.552357 -10.843037 18.248269 -8.348784 0.587884 -0.548698 0.945911 6.683401 -4.284382 -16.428063 4.832104 0.000000 0.000000 0.000000 177.779470 -53.559676 178.471054 10.827519 -2.581776 -0.491095 -0.179317 -2.311298 3.336602 0.934787 0.341760 -0.291691 0.000000 0.000000 0.000000 -2.459879 -2.252023 3.489168 -4.173532 13.084622 2.072218 0.873326 11.188862 -3.085870 0.000000 0.000000 0.000000 -2.037656 -1.739642 3.307027 1.061270 2.852061 -9.922311 1.198549 -3.090584 -1.030027 3.565340 -9.112408 -59.858419 3.166697 -17.594776 -6.168156 0.000000 0.000000 0.000000 -1.588503 -2.036931 2.892836 1.835442 -2.741892 17.623572 -3.159347 -0.807956 -0.396937 14.843654 30.173242 45.832130 15.286462 26.230360 -5.977130 0.000000 0.000000 0.000000 
-0.654364 31.934227 2.463139 0.000000 0.000000 0.000000 177.900337 -48.590837 179.333652 4.042683 16.529077 26.920234 39.417527 20.158084 -1.443933 -7.162732 7.231908 -35.876091 -3.073619 3.978781 -8.325448 0.000000 0.000000 0.000000 177.917330 -47.994421 178.827289 -17.282810 -20.110775 -7.889798 20.269385 -6.857454 -0.043372 -3.097864 1.337627 4.511334 -4.575100 -16.105347 3.748594 0.000000 0.000000 0.000000 178.570419 -49.763109 178.947241 11.347839 -2.974748 -0.459340 -0.411555 -2.473232 3.229747 0.888353 0.700741 -0.225454 0.000000 0.000000 0.000000 -2.528119 -2.408262 3.325199 -3.777353 9.863763 2.031325 0.651132 7.276974 -2.067769 0.000000 0.000000 0.000000 -2.160657 -1.893375 3.209193 1.066343 2.999344 -9.889441 1.011430 -2.969783 -0.777901 4.864777 -8.812582 -60.509780 2.759757 -18.274255 -6.485225 0.000000 0.000000 0.000000 -1.722540 -2.194898 2.811571 1.822167 -2.786720 17.598160 -3.171783 -0.631452 -0.426814 14.320185 30.694611 45.908789 14.957976 26.335522 -5.698198 0.000000 0.000000 0.000000 
-0.646032 31.701344 1.328133 0.000000 0.000000 0.000000 178.607302 -45.235564 179.662580 2.527516 14.041336 28.513557 44.376494 19.078832 -1.298678 -2.755853 4.487548 -33.749785 -2.643541 4.608814 -12.178455 0.000000 0.000000 0.000000 178.724535 -44.589527 179.186202 -16.825649 -20.267236 -4.992085 22.402756 -5.129398 -0.780231 -5.453024 1.628711 2.821256 -5.074337 -15.772100 2.410087 0.000000 0.000000 0.000000 179.239204 -46.040198 179.173689 11.847014 -3.118728 -0.248920 -0.707105 -2.499503 2.867256 0.811055 0.852066 -0.160187 0.000000 0.000000 0.000000 -2.619433 -2.402413 2.919416 -3.111795 6.716268 2.353379 0.556454 3.704756 -1.457913 0.000000 0.000000 0.000000 -2.308871 -1.890522 2.855711 1.062547 3.011631 -9.648615 0.859233 -2.718064 -0.600637 5.951593 -7.864103 -61.237844 2.538609 -18.675279 -6.921085 0.000000 0.000000 0.000000 -1.902458 -2.204336 2.480225 1.775478 -2.848360 17.686418 -3.013568 -0.545586 -0.551003 13.886657 31.153715 45.749147 14.740149 26.474845 -5.437867 0.000000 0.000000 0.000000 
-0.674696 31.564808 0.156998 0.000000 0.000000 0.000000 179.302602 -41.707106 179.795946 1.038802 11.537987 28.594674 48.326553 18.327240 -0.934549 0.126424 2.380084 -28.919373 -3.724316 5.228331 -15.339046 0.000000 0.000000 0.000000 179.373158 -41.071977 179.211487 -16.217290 -19.811093 -2.212071 24.143938 -2.981931 -1.502225 -7.330267 1.939159 2.151428 -6.155343 -15.429397 0.923617 0.000000 0.000000 0.000000 179.830698 -42.345339 179.249477 12.299003 -2.971133 0.123221 -1.003521 -2.368735 2.341413 0.679624 0.842004 -0.041128 0.000000 0.000000 0.000000 -2.721121 -2.224171 2.358179 -2.233076 3.742175 2.879373 0.571295 0.525293 -1.207984 0.000000 0.000000 0.000000 -2.431464 -1.733537 2.344614 1.050396 2.924006 -9.327375 0.738816 -2.350119 -0.399875 6.946118 -6.344398 -62.055089 2.539260 -18.532152 -7.419972 0.000000 0.000000 0.000000 -2.081373 -2.047381 1.997318 1.712665 -2.993998 17.760602 -2.805317 -0.673975 -0.691049 13.638121 31.763392 45.215012 14.651961 26.488220 -5.237670 0.000000 0.000000 0.000000 
-0.770014 31.518110 -1.059994 0.000000 0.000000 0.000000 179.913986 -37.953305 179.707345 -0.763539 9.535608 27.310404 51.577251 17.684719 -0.760528 0.833853 1.012405 -22.305750 -5.699706 5.750364 -17.098458 0.000000 0.000000 0.000000 179.805891 -37.458403 178.863489 -15.233651 -18.558724 0.478508 25.195702 -0.417739 -2.133793 -9.186003 2.318932 2.314982 -7.546089 -15.019856 -0.394645 0.000000 0.000000 0.000000 -179.683494 -38.574286 179.191270 12.648105 -2.571605 0.585851 -1.227990 -2.081684 1.765760 0.522529 0.638538 -0.003684 0.000000 0.000000 0.000000 -2.823216 -1.901213 1.759219 -1.275238 1.022482 3.450336 0.691480 -2.243962 -1.260917 0.000000 0.000000 0.000000 -2.496076 -1.436666 1.788122 1.028209 2.769539 -9.040074 0.802755 -1.996563 -0.190941 7.913076 -4.538019 -62.960663 2.820867 -17.868212 -7.890287 0.000000 0.000000 0.000000 -2.220428 -1.734969 1.473826 1.653522 -3.325501 17.778767 -2.642954 -0.868198 -0.757842 13.647693 32.530128 44.343446 14.635736 26.241028 -5.078854 0.000000 0.000000 0.000000 
